PathFileType	4	(X/Y/Z)	C:\Users\Basilio\Documents\Thesis Gigler\squatting_fais\c3dfiles\047\SLS_pre_front1\markers_experimental.trc
DataRate	CameraRate	NumFrames	NumMarkers	Units	OrigDataRate	OrigDataStartFrame	OrigNumFrames
200.000000	200.000000	4	60	mm	200.000000	0	1209
Frame#	Time	FHD			LBHD			RBHD			C7			T10			CLAV			LSHO			LUUPA			LMUPA			LDUPA			LLEP			LRAD			LUL			LRFIN			RSHO			RUPA1			RMUPA			RDUPA			RLEP			RMEP			RRAD			RUL			RUFIN			LASI			RASI			USACR			LSACR			RSACR			LTHI1			LTHI2			LTHI3			LTHI4			LLFC			LMFC			LTIB1			LTIB2			LTIB3			LTIB4			LLMAL			LMMAL			LMT1			LMT2			LMT5			RTHI			RTHI2			RTHI3			RTHI4			RLFC			RMFC			RTIB1			RTIB2			RTIB3			RTIB4			RLMAL			RMMAL			RHEE			RMT1			RMT2			RMT5			LMEP			
		X1	Y1	Z1	X2	Y2	Z2	X3	Y3	Z3	X4	Y4	Z4	X5	Y5	Z5	X6	Y6	Z6	X7	Y7	Z7	X8	Y8	Z8	X9	Y9	Z9	X10	Y10	Z10	X11	Y11	Z11	X12	Y12	Z12	X13	Y13	Z13	X14	Y14	Z14	X15	Y15	Z15	X16	Y16	Z16	X17	Y17	Z17	X18	Y18	Z18	X19	Y19	Z19	X20	Y20	Z20	X21	Y21	Z21	X22	Y22	Z22	X23	Y23	Z23	X24	Y24	Z24	X25	Y25	Z25	X26	Y26	Z26	X27	Y27	Z27	X28	Y28	Z28	X29	Y29	Z29	X30	Y30	Z30	X31	Y31	Z31	X32	Y32	Z32	X33	Y33	Z33	X34	Y34	Z34	X35	Y35	Z35	X36	Y36	Z36	X37	Y37	Z37	X38	Y38	Z38	X39	Y39	Z39	X40	Y40	Z40	X41	Y41	Z41	X42	Y42	Z42	X43	Y43	Z43	X44	Y44	Z44	X45	Y45	Z45	X46	Y46	Z46	X47	Y47	Z47	X48	Y48	Z48	X49	Y49	Z49	X50	Y50	Z50	X51	Y51	Z51	X52	Y52	Z52	X53	Y53	Z53	X54	Y54	Z54	X55	Y55	Z55	X56	Y56	Z56	X57	Y57	Z57	X58	Y58	Z58	X59	Y59	Z59	X60	Y60	Z60	

1	0	-228.8414154052735	1719.11865234375	-1067.109375	-408.395477294922	1693.355712890625	-1093.70654296875	-385.9632873535157	1698.192138671875	-946.645446777344	-443.1045227050782	1509.108520507813	-1024.736083984375	-435.2718200683595	1189.318969726563	-1018.030456542969	-291.0066833496094	1454.345581054688	-1039.758178710938	-354.9026184082032	1487.394287109375	-1192.43896484375	-244.3545532226563	1385.472534179688	-1300.221069335938	-210.6761779785157	1422.806396484375	-1292.628173828125	-175.7451782226563	1377.886352539063	-1310.495239257813	-110.5020904541016	1382.2626953125	-1316.956176757813	154.6882019042969	1383.842407226563	-1250.25830078125	147.8328552246094	1367.37158203125	-1326.350952148438	233.8267059326172	1401.757446289063	-1275.789184570313	-347.9949340820313	1494.986572265625	-885.446472167969	-220.3646240234376	1389.84814453125	-783.658874511719	-187.2462463378907	1421.795166015625	-800.7266235351565	-151.78369140625	1376.025512695313	-783.4278564453127	-81.4280471801758	1376.92919921875	-790.0236816406252	-85.76861572265626	1317.240600585938	-847.4245605468752	163.9817962646485	1374.829223632813	-903.6118164062502	171.0353393554688	1372.74853515625	-828.5361938476565	245.7145996093751	1394.66455078125	-897.4825439453127	-224.5642700195313	992.6806640625002	-1117.421264648438	-227.4388732910157	1010.744079589844	-886.920104980469	-418.0594787597657	1053.68115234375	-1010.223022460938	-415.2179565429689	1020.164001464844	-1037.631591796875	-421.0414428710939	1023.859069824219	-978.5020751953127	-296.9696044921876	824.8162841796877	-1177.876342773438	-257.4117126464844	750.5087280273439	-1172.124267578125	-209.6710815429688	758.5514526367189	-1161.889526367188	-283.0651855468751	695.5041503906251	-1163.458251953125	-301.9465026855469	522.4270019531251	-1121.638549804688	-270.7974243164063	519.0305175781251	-1002.131713867188	-275.7514953613282	340.2906494140626	-1016.488037109375	-284.8327331542969	289.6774597167969	-1089.700561523438	-268.3783569335938	289.1903991699219	-1044.149169921875	-283.5371398925782	214.8695373535157	-1010.306396484375	-335.8119201660157	117.7911148071289	-1050.113159179688	-313.9306335449219	135.5726013183594	-964.6942138671877	-192.4026184082032	62.2096290588379	-978.4552001953127	-189.8984680175782	59.48710250854494	-1023.033508300781	-237.7411041259766	44.75362396240235	-1068.855712890625	-221.3526306152344	838.5761718750002	-792.187194824219	-156.882308959961	821.489685058594	-800.3082275390627	-134.6239776611328	843.4453735351565	-810.0133056640627	-124.7093048095703	744.7846069335939	-804.181335449219	-26.74345588684083	635.4615478515626	-826.535827636719	-12.68378067016602	634.4781494140626	-950.7377929687502	70.51220703125001	546.5322875976564	-849.236755371094	66.99910736083986	445.976531982422	-803.5136718750002	101.7983093261719	468.3750305175782	-825.3223266601565	131.9335174560547	431.5652465820314	-859.797790527344	161.3890228271485	273.9296875000001	-824.6655883789065	169.4534454345703	294.1349487304688	-914.4578857421877	120.2211990356446	216.8987274169922	-870.3845825195315	317.0274963378907	281.2789001464844	-911.5643310546877	322.1381835937501	291.5874633789063	-867.3350219726565	294.2947998046876	253.0351715087891	-806.523376464844	nan	nan	nan	
2	0.005	-228.7109527587891	1719.109619140625	-1066.831176757813	-408.3123474121095	1693.443115234375	-1093.571899414063	-385.9560852050782	1698.173583984375	-946.5435180664065	-443.060516357422	1509.051025390625	-1024.7783203125	-435.2073669433595	1189.330078125	-1018.1015625	-291.0282897949219	1454.431640625	-1039.730224609375	-355.0183715820313	1487.689086914063	-1192.224243164063	-243.9255676269532	1386.983642578125	-1300.171752929688	-210.6908569335938	1424.270141601563	-1292.138793945313	-175.3191070556641	1379.785034179688	-1310.159545898438	-110.1826553344727	1384.646606445313	-1316.399780273438	155.1069030761719	1387.597045898438	-1249.526611328125	148.301025390625	1371.254638671875	-1325.704345703125	234.121322631836	1406.210693359375	-1275.064697265625	-348.0652160644532	1495.143676757813	-885.611999511719	-219.9105224609376	1391.380249023438	-783.9129638671877	-186.9050598144532	1423.070434570313	-801.2790527343752	-151.2432861328125	1377.511474609375	-784.733337402344	-80.90427398681642	1379.07373046875	-791.0022583007815	-84.86264038085939	1319.378051757813	-848.1253662109377	164.456298828125	1378.302368164063	-904.9395751953127	171.6634063720703	1376.63232421875	-829.772399902344	245.8289031982422	1399.365600585938	-898.689392089844	-224.5263824462891	992.6618652343752	-1117.457153320313	-227.4116973876954	1010.649169921875	-886.9464111328127	-418.0594787597657	1053.68115234375	-1010.223022460938	-415.2033996582032	1020.161376953125	-1037.667236328125	-421.0037536621095	1023.881652832031	-978.5722656250002	-297.0599365234376	824.8411254882815	-1177.964721679688	-257.5870056152344	750.5573120117189	-1172.242309570313	-209.7667694091797	758.0986328125001	-1161.32568359375	-283.0967712402344	695.5200195312501	-1163.56591796875	-302.0481872558594	522.4373168945314	-1121.768432617188	-270.7113647460938	519.0095825195314	-1002.306823730469	-275.8012390136719	340.2684631347657	-1016.645874023438	-285.1070251464844	289.6920166015626	-1089.877197265625	-268.4589233398438	289.2576599121094	-1044.356323242188	-283.5363159179688	214.8902587890626	-1010.465515136719	-336.0681152343751	117.7840423583985	-1050.133178710938	-313.9372253417969	135.6739654541016	-964.8442382812502	-192.3641967773438	62.31042480468751	-978.4995117187502	-189.9164428710938	59.39931488037111	-1023.064514160156	-237.7382202148438	44.65841293334962	-1068.918579101563	-221.4061431884766	838.426208496094	-792.2651977539065	-156.9822845458985	821.4569091796877	-800.3427734375002	-134.7940826416016	843.3652343750002	-809.9360351562502	-124.8539733886719	744.7290649414064	-804.1888427734377	-26.83968544006348	635.4118652343751	-826.4744873046877	-14.5546236038208	634.2623291015626	-950.4238281250002	70.81623840332033	546.4327392578126	-848.9581298828127	66.90761566162111	445.8861694335939	-803.4485473632815	101.748764038086	468.3395385742189	-825.2780761718752	131.9411315917969	431.4979553222657	-859.725036621094	161.2601623535157	273.8514099121094	-824.4735107421877	169.6111145019532	294.1297607421876	-914.3138427734377	120.2130966186524	216.8337554931641	-870.3402099609377	317.0480041503907	281.2325439453126	-911.0986938476565	321.7117004394532	291.7873840332032	-866.9067993164065	294.1596679687501	252.9830474853516	-806.263854980469	nan	nan	nan	
3	0.01	-228.752914428711	1719.514404296875	-1066.650146484375	-408.1852416992189	1693.560546875	-1093.495361328125	-385.9664611816407	1698.154296875	-946.3840942382815	-443.0564575195314	1509.041381835938	-1024.7470703125	-435.1449279785157	1189.312255859375	-1018.14208984375	-291.0042114257813	1454.431518554688	-1039.686767578125	-355.1929931640626	1488.044189453125	-1191.96923828125	-243.6062469482422	1388.325805664063	-1300.060791015625	-210.344467163086	1426.043090820313	-1292.1181640625	-174.8361053466797	1381.561645507813	-1309.872192382813	-109.6072158813477	1386.736450195313	-1315.93212890625	155.6146240234375	1391.212646484375	-1248.809204101563	148.9910736083985	1375.11767578125	-1325.126586914063	234.4656829833985	1410.547729492188	-1274.47265625	-348.1305847167969	1495.292114257813	-885.7884521484377	-219.2465209960938	1392.87060546875	-784.7815551757815	-186.3462524414063	1424.667846679688	-802.001403808594	-150.8146362304688	1379.571411132813	-784.4735107421877	-80.1133270263672	1381.2255859375	-791.937194824219	-83.73882293701173	1321.563354492188	-848.8477783203127	164.6680603027344	1381.865966796875	-906.110046386719	172.3109130859375	1380.156005859375	-831.0989990234377	246.1322937011719	1403.474975585938	-900.2732543945315	-224.5045166015626	992.6932373046877	-1117.569702148438	-227.3828735351563	1010.634399414063	-886.9925537109377	-417.9759521484376	1053.748779296875	-1010.293884277344	-415.2100524902345	1020.251403808594	-1037.708129882813	-420.9163208007814	1023.893737792969	-978.647155761719	-297.0970764160157	824.9368286132815	-1178.1181640625	-257.6537780761719	750.6056518554689	-1172.326049804688	-209.7700195312501	758.1380615234376	-1161.4521484375	-283.0836486816407	695.5797729492189	-1163.703125	-302.1294555664063	522.4954833984376	-1121.92236328125	-270.7318725585938	519.0311889648439	-1002.459899902344	-275.8120117187501	340.2546386718751	-1016.741638183594	-285.3564453125001	289.6392822265626	-1090.005981445313	-268.8322143554688	289.7377929687501	-1044.287719726563	-283.6008605957032	214.8647460937501	-1010.659851074219	-336.1477661132813	117.7143325805664	-1050.2099609375	-313.9183959960938	135.6952667236328	-964.9602050781252	-192.3608703613282	62.3330421447754	-978.5916748046877	-189.9068756103516	59.37380981445314	-1023.067260742188	-237.7075958251954	44.60708618164063	-1068.970092773438	-221.4500122070313	838.343200683594	-792.3471679687502	-157.0366363525391	821.397644042969	-800.4291992187502	-134.9293975830078	843.289245605469	-809.963317871094	-125.0746231079102	744.7352294921876	-804.1182250976565	-26.86146354675294	635.3094482421876	-826.4031982421877	-12.63727378845215	634.4199218750001	-950.5794677734377	70.44678497314455	546.4932250976564	-848.9846191406252	66.85620880126955	445.8516235351564	-803.4036865234377	101.5878601074219	468.1236877441407	-824.999450683594	131.843002319336	431.4433898925782	-859.530212402344	161.2306213378907	273.8305053710938	-824.3016357421877	169.5221710205078	294.0348205566407	-914.1404418945315	120.2209930419922	216.7154998779297	-870.2681884765627	317.0286560058594	281.1876525878907	-910.6924438476565	322.0233154296876	291.5159301757813	-866.4957275390627	294.0250549316407	252.8865051269532	-805.9638671875002	nan	nan	nan	
4	0.015	-228.642074584961	1719.5126953125	-1066.414428710938	-408.0409545898439	1693.672241210938	-1093.380493164063	-385.9537048339845	1698.149658203125	-946.257507324219	-443.0564575195314	1509.041381835938	-1024.7470703125	-435.0959777832032	1189.359130859375	-1018.213439941406	-291.0323181152344	1454.494750976563	-1039.649291992188	-355.2719421386719	1488.34228515625	-1191.774169921875	-243.3053894042969	1389.620361328125	-1299.967895507813	-210.2252960205079	1427.475952148438	-1291.869140625	-174.4421844482422	1383.2607421875	-1309.530151367188	-109.2400131225586	1388.920654296875	-1315.475952148438	153.6278076171875	1392.978637695313	-1248.709838867188	149.49755859375	1378.814575195313	-1324.56103515625	234.9096221923829	1415.062133789063	-1273.527709960938	-348.1884765625001	1495.522827148438	-885.9964599609377	-218.7229919433594	1393.94873046875	-784.7341308593752	-186.3356170654297	1425.97412109375	-802.369812011719	-149.886947631836	1381.07763671875	-785.178405761719	-79.76866149902345	1383.434204101563	-792.511413574219	-83.0845184326172	1323.593994140625	-849.2449340820315	164.6256103515625	1385.371826171875	-907.237731933594	172.9398651123047	1383.81640625	-832.394226074219	246.4677124023438	1407.43310546875	-902.088317871094	-224.4801177978516	992.7303466796877	-1117.609252929688	-227.3708801269532	1010.544799804688	-886.999694824219	-417.9479064941407	1053.7431640625	-1010.359436035156	-415.1236267089845	1020.25	-1037.736083984375	-420.8829345703126	1023.903442382813	-978.6757812500002	-297.0918884277344	824.983337402344	-1178.14013671875	-257.7349853515626	750.5948486328126	-1172.3486328125	-209.7763824462891	758.1412353515626	-1161.571899414063	-283.1675415039063	695.5971069335939	-1163.78125	-302.2650756835938	522.5501098632814	-1122.007446289063	-270.5158691406251	519.1846313476564	-1002.330017089844	-275.7982788085938	340.3133544921876	-1016.890563964844	-285.2650756835938	289.6359863281251	-1090.555541992188	-268.5692443847657	289.2707519531251	-1044.866577148438	-283.6159973144532	214.8722076416016	-1010.828552246094	-336.3160400390626	117.6717529296875	-1050.254638671875	-313.9061279296876	135.7423706054688	-965.098571777344	-192.3986358642579	62.38313674926759	-978.6151123046877	-189.9949798583985	59.3354835510254	-1023.140502929688	-237.7627716064454	44.48315048217774	-1069.007202148438	-221.4940490722657	838.2938232421877	-792.3441162109377	-157.1200256347657	821.3567504882815	-800.405456542969	-135.0745086669922	843.1989746093752	-809.8830566406252	-125.1192321777344	744.6830444335939	-804.1369628906252	-27.2069206237793	634.9189453125001	-826.132019042969	-12.56395149230957	634.4263305664064	-950.4473876953127	70.43458557128908	546.4389038085939	-848.9056396484377	66.79650878906251	445.8179931640626	-803.3118286132815	101.538803100586	468.0531616210939	-824.8308715820315	131.8705749511719	431.4395141601564	-859.4316406250002	161.1886596679688	273.8047180175782	-824.1309814453127	169.6735382080078	294.0668640136719	-913.9942626953127	120.216796875	216.7295532226563	-870.1892089843752	317.0629272460938	281.1301269531251	-910.3282470703127	321.9369506835938	291.4438476562501	-866.0289306640627	293.8385620117188	252.8121490478516	-805.5789794921877	nan	nan	nan	
